<svg width="27" height="27" viewBox="0 0 27 27" fill="none" xmlns="http://www.w3.org/2000/svg">
<path d="M10.125 23.625H16.875M20.25 10.9688V12.6562C20.25 16.3688 17.2125 19.4062 13.5 19.4062M13.5 19.4062C9.7875 19.4062 6.75 16.3688 6.75 12.6562V10.9688M13.5 19.4062V23.625" stroke="#1278BB" stroke-width="2" stroke-linecap="round" stroke-linejoin="round"/>
<path d="M13.5 16.875C12.9432 16.8737 12.3923 16.7605 11.88 16.5422C11.3677 16.3239 10.9045 16.0049 10.5179 15.6041C9.7265 14.8059 9.2821 13.7276 9.28128 12.6035V6.75C9.27912 6.19538 9.38677 5.64582 9.59801 5.133C9.80926 4.62018 10.1199 4.15425 10.5121 3.76207C10.9043 3.3699 11.3702 3.05923 11.883 2.84798C12.3958 2.63674 12.9454 2.52909 13.5 2.53125C15.8657 2.53125 17.7188 4.38434 17.7188 6.75V12.6035C17.7188 14.9586 15.8261 16.875 13.5 16.875Z" fill="#1278BB"/>
</svg>
