<svg width="184" height="57" viewBox="0 0 184 57" fill="none" xmlns="http://www.w3.org/2000/svg">
<rect x="1" y="0.5" width="182" height="41" rx="20.5" stroke="url(#paint0_linear_24_931)"/>
<g filter="url(#filter0_d_24_931)">
<path d="M31.092 21.416C31.092 20.328 31.3427 19.352 31.844 18.488C32.356 17.624 33.044 16.952 33.908 16.472C34.7827 15.9813 35.7373 15.736 36.772 15.736C37.956 15.736 39.0067 16.0293 39.924 16.616C40.852 17.192 41.524 18.0133 41.94 19.08H39.748C39.46 18.4933 39.06 18.056 38.548 17.768C38.036 17.48 37.444 17.336 36.772 17.336C36.036 17.336 35.38 17.5013 34.804 17.832C34.228 18.1627 33.7747 18.6373 33.444 19.256C33.124 19.8747 32.964 20.5947 32.964 21.416C32.964 22.2373 33.124 22.9573 33.444 23.576C33.7747 24.1947 34.228 24.6747 34.804 25.016C35.38 25.3467 36.036 25.512 36.772 25.512C37.444 25.512 38.036 25.368 38.548 25.08C39.06 24.792 39.46 24.3547 39.748 23.768H41.94C41.524 24.8347 40.852 25.656 39.924 26.232C39.0067 26.808 37.956 27.096 36.772 27.096C35.7267 27.096 34.772 26.856 33.908 26.376C33.044 25.8853 32.356 25.208 31.844 24.344C31.3427 23.48 31.092 22.504 31.092 21.416ZM45.899 19.464C46.1657 19.016 46.5177 18.6693 46.955 18.424C47.403 18.168 47.931 18.04 48.539 18.04V19.928H48.075C47.3603 19.928 46.8163 20.1093 46.443 20.472C46.0803 20.8347 45.899 21.464 45.899 22.36V27H44.075V18.184H45.899V19.464ZM58.2956 22.376C58.2956 22.7067 58.2743 23.0053 58.2316 23.272H51.4956C51.549 23.976 51.8103 24.5413 52.2796 24.968C52.749 25.3947 53.325 25.608 54.0076 25.608C54.989 25.608 55.6823 25.1973 56.0876 24.376H58.0556C57.789 25.1867 57.3036 25.8533 56.5996 26.376C55.9063 26.888 55.0423 27.144 54.0076 27.144C53.165 27.144 52.4076 26.9573 51.7356 26.584C51.0743 26.2 50.5516 25.6667 50.1676 24.984C49.7943 24.2907 49.6076 23.4907 49.6076 22.584C49.6076 21.6773 49.789 20.8827 50.1516 20.2C50.525 19.5067 51.0423 18.9733 51.7036 18.6C52.3756 18.2267 53.1436 18.04 54.0076 18.04C54.8396 18.04 55.581 18.2213 56.2316 18.584C56.8823 18.9467 57.389 19.4587 57.7516 20.12C58.1143 20.7707 58.2956 21.5227 58.2956 22.376ZM56.3916 21.8C56.381 21.128 56.141 20.5893 55.6716 20.184C55.2023 19.7787 54.621 19.576 53.9276 19.576C53.2983 19.576 52.7596 19.7787 52.3116 20.184C51.8636 20.5787 51.597 21.1173 51.5116 21.8H56.3916ZM59.4826 22.552C59.4826 21.6667 59.664 20.8827 60.0266 20.2C60.4 19.5173 60.9013 18.9893 61.5306 18.616C62.1706 18.232 62.8746 18.04 63.6426 18.04C64.336 18.04 64.9386 18.1787 65.4506 18.456C65.9733 18.7227 66.3893 19.0587 66.6986 19.464V18.184H68.5386V27H66.6986V25.688C66.3893 26.104 65.968 26.4507 65.4346 26.728C64.9013 27.0053 64.2933 27.144 63.6106 27.144C62.8533 27.144 62.16 26.952 61.5306 26.568C60.9013 26.1733 60.4 25.6293 60.0266 24.936C59.664 24.232 59.4826 23.4373 59.4826 22.552ZM66.6986 22.584C66.6986 21.976 66.5706 21.448 66.3146 21C66.0693 20.552 65.744 20.2107 65.3386 19.976C64.9333 19.7413 64.496 19.624 64.0266 19.624C63.5573 19.624 63.12 19.7413 62.7146 19.976C62.3093 20.2 61.9786 20.536 61.7226 20.984C61.4773 21.4213 61.3546 21.944 61.3546 22.552C61.3546 23.16 61.4773 23.6933 61.7226 24.152C61.9786 24.6107 62.3093 24.9627 62.7146 25.208C63.1306 25.4427 63.568 25.56 64.0266 25.56C64.496 25.56 64.9333 25.4427 65.3386 25.208C65.744 24.9733 66.0693 24.632 66.3146 24.184C66.5706 23.7253 66.6986 23.192 66.6986 22.584ZM73.0624 19.672V24.552C73.0624 24.8827 73.137 25.1227 73.2864 25.272C73.4464 25.4107 73.713 25.48 74.0864 25.48H75.2064V27H73.7664C72.945 27 72.3157 26.808 71.8784 26.424C71.441 26.04 71.2224 25.416 71.2224 24.552V19.672H70.1824V18.184H71.2224V15.992H73.0624V18.184H75.2064V19.672H73.0624ZM84.9675 22.376C84.9675 22.7067 84.9462 23.0053 84.9035 23.272H78.1675C78.2208 23.976 78.4822 24.5413 78.9515 24.968C79.4208 25.3947 79.9968 25.608 80.6795 25.608C81.6608 25.608 82.3542 25.1973 82.7595 24.376H84.7275C84.4608 25.1867 83.9755 25.8533 83.2715 26.376C82.5782 26.888 81.7142 27.144 80.6795 27.144C79.8368 27.144 79.0795 26.9573 78.4075 26.584C77.7462 26.2 77.2235 25.6667 76.8395 24.984C76.4662 24.2907 76.2795 23.4907 76.2795 22.584C76.2795 21.6773 76.4608 20.8827 76.8235 20.2C77.1968 19.5067 77.7142 18.9733 78.3755 18.6C79.0475 18.2267 79.8155 18.04 80.6795 18.04C81.5115 18.04 82.2528 18.2213 82.9035 18.584C83.5542 18.9467 84.0608 19.4587 84.4235 20.12C84.7862 20.7707 84.9675 21.5227 84.9675 22.376ZM83.0635 21.8C83.0528 21.128 82.8128 20.5893 82.3435 20.184C81.8742 19.7787 81.2928 19.576 80.5995 19.576C79.9702 19.576 79.4315 19.7787 78.9835 20.184C78.5355 20.5787 78.2688 21.1173 78.1835 21.8H83.0635ZM96.6948 27L94.1348 22.552H92.7428V27H90.9188V15.88H94.7588C95.6121 15.88 96.3321 16.0293 96.9188 16.328C97.5161 16.6267 97.9588 17.0267 98.2468 17.528C98.5454 18.0293 98.6948 18.5893 98.6948 19.208C98.6948 19.9333 98.4814 20.5947 98.0548 21.192C97.6388 21.7787 96.9934 22.1787 96.1188 22.392L98.8708 27H96.6948ZM92.7428 21.096H94.7588C95.4414 21.096 95.9534 20.9253 96.2948 20.584C96.6468 20.2427 96.8228 19.784 96.8228 19.208C96.8228 18.632 96.6521 18.184 96.3108 17.864C95.9694 17.5333 95.4521 17.368 94.7588 17.368H92.7428V21.096ZM109.108 22.376C109.108 22.7067 109.087 23.0053 109.044 23.272H102.308C102.361 23.976 102.623 24.5413 103.092 24.968C103.561 25.3947 104.137 25.608 104.82 25.608C105.801 25.608 106.495 25.1973 106.9 24.376H108.868C108.601 25.1867 108.116 25.8533 107.412 26.376C106.719 26.888 105.855 27.144 104.82 27.144C103.977 27.144 103.22 26.9573 102.548 26.584C101.887 26.2 101.364 25.6667 100.98 24.984C100.607 24.2907 100.42 23.4907 100.42 22.584C100.42 21.6773 100.601 20.8827 100.964 20.2C101.337 19.5067 101.855 18.9733 102.516 18.6C103.188 18.2267 103.956 18.04 104.82 18.04C105.652 18.04 106.393 18.2213 107.044 18.584C107.695 18.9467 108.201 19.4587 108.564 20.12C108.927 20.7707 109.108 21.5227 109.108 22.376ZM107.204 21.8C107.193 21.128 106.953 20.5893 106.484 20.184C106.015 19.7787 105.433 19.576 104.74 19.576C104.111 19.576 103.572 19.7787 103.124 20.184C102.676 20.5787 102.409 21.1173 102.324 21.8H107.204ZM112.727 15.16V27H110.903V15.16H112.727ZM123.202 22.376C123.202 22.7067 123.181 23.0053 123.138 23.272H116.402C116.455 23.976 116.717 24.5413 117.186 24.968C117.655 25.3947 118.231 25.608 118.914 25.608C119.895 25.608 120.589 25.1973 120.994 24.376H122.962C122.695 25.1867 122.21 25.8533 121.506 26.376C120.813 26.888 119.949 27.144 118.914 27.144C118.071 27.144 117.314 26.9573 116.642 26.584C115.981 26.2 115.458 25.6667 115.074 24.984C114.701 24.2907 114.514 23.4907 114.514 22.584C114.514 21.6773 114.695 20.8827 115.058 20.2C115.431 19.5067 115.949 18.9733 116.61 18.6C117.282 18.2267 118.05 18.04 118.914 18.04C119.746 18.04 120.487 18.2213 121.138 18.584C121.789 18.9467 122.295 19.4587 122.658 20.12C123.021 20.7707 123.202 21.5227 123.202 22.376ZM121.298 21.8C121.287 21.128 121.047 20.5893 120.578 20.184C120.109 19.7787 119.527 19.576 118.834 19.576C118.205 19.576 117.666 19.7787 117.218 20.184C116.77 20.5787 116.503 21.1173 116.418 21.8H121.298ZM124.389 22.552C124.389 21.6667 124.57 20.8827 124.933 20.2C125.306 19.5173 125.808 18.9893 126.437 18.616C127.077 18.232 127.781 18.04 128.549 18.04C129.242 18.04 129.845 18.1787 130.357 18.456C130.88 18.7227 131.296 19.0587 131.605 19.464V18.184H133.445V27H131.605V25.688C131.296 26.104 130.874 26.4507 130.341 26.728C129.808 27.0053 129.2 27.144 128.517 27.144C127.76 27.144 127.066 26.952 126.437 26.568C125.808 26.1733 125.306 25.6293 124.933 24.936C124.57 24.232 124.389 23.4373 124.389 22.552ZM131.605 22.584C131.605 21.976 131.477 21.448 131.221 21C130.976 20.552 130.65 20.2107 130.245 19.976C129.84 19.7413 129.402 19.624 128.933 19.624C128.464 19.624 128.026 19.7413 127.621 19.976C127.216 20.2 126.885 20.536 126.629 20.984C126.384 21.4213 126.261 21.944 126.261 22.552C126.261 23.16 126.384 23.6933 126.629 24.152C126.885 24.6107 127.216 24.9627 127.621 25.208C128.037 25.4427 128.474 25.56 128.933 25.56C129.402 25.56 129.84 25.4427 130.245 25.208C130.65 24.9733 130.976 24.632 131.221 24.184C131.477 23.7253 131.605 23.192 131.605 22.584ZM139.041 27.144C138.347 27.144 137.723 27.0213 137.169 26.776C136.625 26.52 136.193 26.1787 135.873 25.752C135.553 25.3147 135.382 24.8293 135.361 24.296H137.249C137.281 24.6693 137.457 24.984 137.777 25.24C138.107 25.4853 138.518 25.608 139.009 25.608C139.521 25.608 139.915 25.512 140.193 25.32C140.481 25.1173 140.625 24.8613 140.625 24.552C140.625 24.2213 140.465 23.976 140.145 23.816C139.835 23.656 139.339 23.48 138.657 23.288C137.995 23.1067 137.457 22.9307 137.041 22.76C136.625 22.5893 136.262 22.328 135.953 21.976C135.654 21.624 135.505 21.16 135.505 20.584C135.505 20.1147 135.643 19.688 135.921 19.304C136.198 18.9093 136.593 18.6 137.105 18.376C137.627 18.152 138.225 18.04 138.897 18.04C139.899 18.04 140.705 18.296 141.313 18.808C141.931 19.3093 142.262 19.9973 142.305 20.872H140.481C140.449 20.4773 140.289 20.1627 140.001 19.928C139.713 19.6933 139.323 19.576 138.833 19.576C138.353 19.576 137.985 19.6667 137.729 19.848C137.473 20.0293 137.345 20.2693 137.345 20.568C137.345 20.8027 137.43 21 137.601 21.16C137.771 21.32 137.979 21.448 138.225 21.544C138.47 21.6293 138.833 21.7413 139.313 21.88C139.953 22.0507 140.475 22.2267 140.881 22.408C141.297 22.5787 141.654 22.8347 141.953 23.176C142.251 23.5173 142.406 23.9707 142.417 24.536C142.417 25.0373 142.278 25.4853 142.001 25.88C141.723 26.2747 141.329 26.584 140.817 26.808C140.315 27.032 139.723 27.144 139.041 27.144ZM152.468 22.376C152.468 22.7067 152.446 23.0053 152.404 23.272H145.668C145.721 23.976 145.982 24.5413 146.452 24.968C146.921 25.3947 147.497 25.608 148.18 25.608C149.161 25.608 149.854 25.1973 150.26 24.376H152.227C151.961 25.1867 151.476 25.8533 150.772 26.376C150.078 26.888 149.214 27.144 148.18 27.144C147.337 27.144 146.58 26.9573 145.908 26.584C145.246 26.2 144.724 25.6667 144.34 24.984C143.966 24.2907 143.78 23.4907 143.78 22.584C143.78 21.6773 143.961 20.8827 144.324 20.2C144.697 19.5067 145.214 18.9733 145.876 18.6C146.548 18.2267 147.316 18.04 148.18 18.04C149.012 18.04 149.753 18.2213 150.404 18.584C151.054 18.9467 151.561 19.4587 151.924 20.12C152.286 20.7707 152.468 21.5227 152.468 22.376ZM150.564 21.8C150.553 21.128 150.313 20.5893 149.844 20.184C149.374 19.7787 148.793 19.576 148.1 19.576C147.47 19.576 146.932 19.7787 146.484 20.184C146.036 20.5787 145.769 21.1173 145.684 21.8H150.564Z" fill="url(#paint1_linear_24_931)"/>
</g>
<defs>
<filter id="filter0_d_24_931" x="10.0918" y="2.16016" width="163.376" height="53.9839" filterUnits="userSpaceOnUse" color-interpolation-filters="sRGB">
<feFlood flood-opacity="0" result="BackgroundImageFix"/>
<feColorMatrix in="SourceAlpha" type="matrix" values="0 0 0 0 0 0 0 0 0 0 0 0 0 0 0 0 0 0 127 0" result="hardAlpha"/>
<feOffset dy="8"/>
<feGaussianBlur stdDeviation="10.5"/>
<feComposite in2="hardAlpha" operator="out"/>
<feColorMatrix type="matrix" values="0 0 0 0 0 0 0 0 0 0 0 0 0 0 0 0 0 0 0.16 0"/>
<feBlend mode="normal" in2="BackgroundImageFix" result="effect1_dropShadow_24_931"/>
<feBlend mode="normal" in="SourceGraphic" in2="effect1_dropShadow_24_931" result="shape"/>
</filter>
<linearGradient id="paint0_linear_24_931" x1="-8.52961" y1="-7" x2="193.918" y2="53.5735" gradientUnits="userSpaceOnUse">
<stop stop-color="#1178BB"/>
<stop offset="1" stop-color="#15A79F"/>
</linearGradient>
<linearGradient id="paint1_linear_24_931" x1="22.0685" y1="9" x2="105.164" y2="86.1879" gradientUnits="userSpaceOnUse">
<stop stop-color="#1278BB"/>
<stop offset="1" stop-color="#13A89E"/>
</linearGradient>
</defs>
</svg>
