<svg width="30" height="30" viewBox="0 0 30 30" fill="none" xmlns="http://www.w3.org/2000/svg">
<path fill-rule="evenodd" clip-rule="evenodd" d="M15.741 29.0725L15.7272 29.075L15.6385 29.1188L15.6135 29.1238L15.596 29.1188L15.5072 29.075C15.4939 29.0709 15.4839 29.073 15.4772 29.0813L15.4722 29.0938L15.451 29.6288L15.4572 29.6538L15.4697 29.67L15.5997 29.7625L15.6185 29.7675L15.6335 29.7625L15.7635 29.67L15.7785 29.65L15.7835 29.6288L15.7622 29.095C15.7589 29.0817 15.7518 29.0742 15.741 29.0725ZM16.0722 28.9313L16.056 28.9338L15.8247 29.05L15.8122 29.0625L15.8085 29.0763L15.831 29.6138L15.8372 29.6288L15.8472 29.6375L16.0985 29.7538C16.1143 29.758 16.1264 29.7546 16.1347 29.7438L16.1397 29.7263L16.0972 28.9588C16.0931 28.9438 16.0847 28.9346 16.0722 28.9313ZM15.1785 28.9338C15.173 28.9305 15.1664 28.9294 15.1601 28.9308C15.1538 28.9322 15.1483 28.9359 15.1447 28.9413L15.1372 28.9588L15.0947 29.7263C15.0956 29.7413 15.1026 29.7513 15.116 29.7563L15.1347 29.7538L15.386 29.6375L15.3985 29.6275L15.4035 29.6138L15.4247 29.0763L15.421 29.0613L15.4085 29.0488L15.1785 28.9338Z" fill="black"/>
<path fill-rule="evenodd" clip-rule="evenodd" d="M23.75 13.75C24.3807 13.7498 24.9882 13.988 25.4507 14.4169C25.9132 14.8457 26.1964 15.4336 26.2438 16.0625L26.25 16.25V23.75C26.2502 24.3807 26.012 24.9882 25.5831 25.4507C25.1543 25.9132 24.5664 26.1964 23.9375 26.2438L23.75 26.25H18.75C18.1193 26.2502 17.5118 26.012 17.0493 25.5831C16.5868 25.1543 16.3036 24.5664 16.2563 23.9375L16.25 23.75V16.25C16.2498 15.6193 16.488 15.0118 16.9169 14.5493C17.3457 14.0868 17.9336 13.8036 18.5625 13.7563L18.75 13.75H23.75ZM11.25 18.75C11.913 18.75 12.5489 19.0134 13.0178 19.4822C13.4866 19.9511 13.75 20.587 13.75 21.25V23.75C13.75 24.413 13.4866 25.0489 13.0178 25.5178C12.5489 25.9866 11.913 26.25 11.25 26.25H6.25C5.58696 26.25 4.95107 25.9866 4.48223 25.5178C4.01339 25.0489 3.75 24.413 3.75 23.75V21.25C3.75 20.587 4.01339 19.9511 4.48223 19.4822C4.95107 19.0134 5.58696 18.75 6.25 18.75H11.25ZM11.25 3.75C11.913 3.75 12.5489 4.01339 13.0178 4.48223C13.4866 4.95107 13.75 5.58696 13.75 6.25V13.75C13.75 14.413 13.4866 15.0489 13.0178 15.5178C12.5489 15.9866 11.913 16.25 11.25 16.25H6.25C5.58696 16.25 4.95107 15.9866 4.48223 15.5178C4.01339 15.0489 3.75 14.413 3.75 13.75V6.25C3.75 5.58696 4.01339 4.95107 4.48223 4.48223C4.95107 4.01339 5.58696 3.75 6.25 3.75H11.25ZM23.75 3.75C24.413 3.75 25.0489 4.01339 25.5178 4.48223C25.9866 4.95107 26.25 5.58696 26.25 6.25V8.75C26.25 9.41304 25.9866 10.0489 25.5178 10.5178C25.0489 10.9866 24.413 11.25 23.75 11.25H18.75C18.087 11.25 17.4511 10.9866 16.9822 10.5178C16.5134 10.0489 16.25 9.41304 16.25 8.75V6.25C16.25 5.58696 16.5134 4.95107 16.9822 4.48223C17.4511 4.01339 18.087 3.75 18.75 3.75H23.75Z" fill="black"/>
</svg>
