<svg width="16" height="14" viewBox="0 0 16 14" fill="none" xmlns="http://www.w3.org/2000/svg">
<path d="M3.453 1.16705C3.38624 1.09893 3.30671 1.04464 3.21896 1.00726C3.13121 0.969895 3.03695 0.950182 2.94158 0.949253C2.8462 0.948324 2.75158 0.966198 2.66311 1.00185C2.57465 1.03751 2.49408 1.09024 2.426 1.15705C1.65618 1.92279 1.04549 2.83331 0.629119 3.83612C0.212752 4.83894 -0.0010592 5.91423 4.13339e-06 7.00005C-0.00112582 8.12755 0.229431 9.24326 0.677373 10.278C1.12531 11.3127 1.78108 12.2443 2.604 13.015C2.74252 13.1431 2.9255 13.2121 3.11408 13.2074C3.30265 13.2028 3.48199 13.1248 3.614 12.99C3.93 12.674 3.891 12.171 3.587 11.88C2.9265 11.2506 2.40089 10.4934 2.04212 9.65447C1.68335 8.81556 1.49891 7.91246 1.5 7.00005C1.5 5.15405 2.241 3.48005 3.443 2.26205C3.733 1.96705 3.763 1.47705 3.453 1.16705ZM5.214 2.93005C5.0823 2.79454 4.90225 2.71676 4.71331 2.71376C4.52437 2.71076 4.34194 2.78278 4.206 2.91405C3.66482 3.4479 3.23527 4.08411 2.94238 4.7856C2.64949 5.4871 2.49911 6.23986 2.5 7.00005C2.5 8.69205 3.23 10.213 4.393 11.265C4.53038 11.3862 4.70909 11.4498 4.89211 11.4427C5.07512 11.4357 5.24839 11.3584 5.376 11.227C5.704 10.899 5.643 10.383 5.335 10.093C4.91295 9.69607 4.57675 9.2168 4.34714 8.68483C4.11753 8.15285 3.99938 7.57946 4 7.00005C4 5.85005 4.457 4.80605 5.2 4.04005C5.486 3.74605 5.533 3.24805 5.214 2.93005ZM10.786 2.92905C10.9177 2.79354 11.0978 2.71576 11.2867 2.71276C11.4756 2.70976 11.6581 2.78178 11.794 2.91305C12.3353 3.44702 12.7649 4.08339 13.0578 4.78506C13.3507 5.48674 13.501 6.2397 13.5 7.00005C13.5 8.69205 12.77 10.213 11.607 11.265C11.4696 11.3862 11.2909 11.4498 11.1079 11.4427C10.9249 11.4357 10.7516 11.3584 10.624 11.227C10.296 10.899 10.357 10.383 10.665 10.093C11.0871 9.69607 11.4233 9.2168 11.6529 8.68483C11.8825 8.15285 12.0006 7.57946 12 7.00005C12 5.85005 11.543 4.80605 10.8 4.04005C10.514 3.74605 10.467 3.24705 10.786 2.92905ZM12.547 1.16705C12.6138 1.09893 12.6933 1.04464 12.781 1.00726C12.8688 0.969895 12.9631 0.950182 13.0584 0.949253C13.1538 0.948324 13.2484 0.966198 13.3369 1.00185C13.4254 1.03751 13.5059 1.09024 13.574 1.15705C14.3438 1.92279 14.9545 2.83331 15.3709 3.83612C15.7873 4.83894 16.0011 5.91423 16 7.00005C16.0011 8.12755 15.7706 9.24326 15.3226 10.278C14.8747 11.3127 14.2189 12.2443 13.396 13.015C13.2575 13.1431 13.0745 13.2121 12.8859 13.2074C12.6974 13.2028 12.518 13.1248 12.386 12.99C12.07 12.674 12.109 12.171 12.414 11.88C13.0743 11.2505 13.5997 10.4933 13.9583 9.65435C14.3169 8.81544 14.5012 7.91238 14.5 7.00005C14.5 5.15405 13.759 3.48005 12.557 2.26205C12.267 1.96705 12.237 1.47705 12.547 1.16705ZM8 5.50005C7.60218 5.50005 7.22065 5.65808 6.93934 5.93939C6.65804 6.22069 6.5 6.60222 6.5 7.00005C6.5 7.39787 6.65804 7.7794 6.93934 8.06071C7.22065 8.34201 7.60218 8.50005 8 8.50005C8.39783 8.50005 8.77936 8.34201 9.06066 8.06071C9.34197 7.7794 9.5 7.39787 9.5 7.00005C9.5 6.60222 9.34197 6.22069 9.06066 5.93939C8.77936 5.65808 8.39783 5.50005 8 5.50005Z" fill="white"/>
</svg>
