<svg width="20" height="20" viewBox="0 0 20 20" fill="none" xmlns="http://www.w3.org/2000/svg">
<path d="M17.5833 16.4729V16.3256C18.8552 15.7947 19.75 14.5392 19.75 13.0756V3.77083C19.75 2.83705 19.3791 1.94151 18.7188 1.28123C18.0585 0.620944 17.1629 0.25 16.2292 0.25H7.02083C6.27634 0.249846 5.55097 0.48569 4.94892 0.923647C4.34688 1.3616 3.89916 1.97913 3.67008 2.6875H3.45233C2.46433 2.6875 1.62367 3.03525 1.04517 3.721C0.484 4.38508 0.25 5.27017 0.25 6.20833V15.6875C0.25 16.8358 0.664917 17.8693 1.4525 18.6125C2.239 19.3524 3.32992 19.7446 4.58333 19.7446H8.83L13.2457 19.75H13.2478C14.3052 19.7554 15.3527 19.5333 16.1652 19.0133C17.0102 18.4717 17.5833 17.6104 17.5833 16.4729ZM3.45233 4.3125H3.5V13.0745C3.5 14.0083 3.87094 14.9038 4.53123 15.5641C5.19151 16.2244 6.08705 16.5953 7.02083 16.5953H15.954C15.9193 17.0482 15.6918 17.3862 15.2888 17.644C14.8197 17.9452 14.108 18.1293 13.2543 18.125H13.25L8.82783 18.1196H4.58333C3.67008 18.1196 3.00167 17.8379 2.56833 17.4295C2.13717 17.0243 1.875 16.435 1.875 15.6875V6.20833C1.875 5.52042 2.04833 5.05242 2.28667 4.76858C2.50875 4.50642 2.863 4.3125 3.45233 4.3125ZM10.0238 4.04167H15.1458C15.3613 4.04167 15.568 4.12727 15.7204 4.27964C15.8727 4.43202 15.9583 4.63868 15.9583 4.85417V9.97725C15.9583 10.1927 15.8727 10.3994 15.7204 10.5518C15.568 10.7041 15.3613 10.7897 15.1458 10.7897C14.9303 10.7897 14.7237 10.7041 14.5713 10.5518C14.4189 10.3994 14.3333 10.1927 14.3333 9.97725V6.815L8.67833 12.47C8.60335 12.5476 8.51366 12.6094 8.41451 12.652C8.31537 12.6945 8.20874 12.7169 8.10086 12.7177C7.99297 12.7186 7.88599 12.698 7.78616 12.6571C7.68633 12.6162 7.59564 12.5558 7.51939 12.4795C7.44313 12.4032 7.38285 12.3125 7.34204 12.2126C7.30123 12.1127 7.28073 12.0057 7.28171 11.8978C7.2827 11.7899 7.30517 11.6833 7.34779 11.5842C7.39042 11.4851 7.45236 11.3955 7.53 11.3206L13.185 5.66667H10.0238C9.80834 5.66667 9.60168 5.58106 9.44931 5.42869C9.29693 5.27632 9.21133 5.06965 9.21133 4.85417C9.21133 4.63868 9.29693 4.43202 9.44931 4.27964C9.60168 4.12727 9.80834 4.04167 10.0238 4.04167Z" fill="#1278BB"/>
</svg>
