<svg width="18" height="19" viewBox="0 0 18 19" fill="none" xmlns="http://www.w3.org/2000/svg">
<path d="M8.272 4.59937C8.272 4.40045 8.35102 4.20969 8.49167 4.06904C8.63232 3.92838 8.82309 3.84937 9.022 3.84937H13.75C13.9489 3.84937 14.1397 3.92838 14.2803 4.06904C14.421 4.20969 14.5 4.40045 14.5 4.59937V9.32837C14.5 9.52728 14.421 9.71804 14.2803 9.8587C14.1397 9.99935 13.9489 10.0784 13.75 10.0784C13.5511 10.0784 13.3603 9.99935 13.2197 9.8587C13.079 9.71804 13 9.52728 13 9.32837V6.40937L7.78 11.6294C7.71078 11.701 7.628 11.7581 7.53647 11.7973C7.44495 11.8366 7.34653 11.8572 7.24694 11.858C7.14736 11.8589 7.04861 11.8398 6.95646 11.8021C6.8643 11.7643 6.78059 11.7086 6.7102 11.6382C6.63982 11.5677 6.58417 11.4839 6.5465 11.3917C6.50883 11.2996 6.4899 11.2008 6.49081 11.1012C6.49173 11.0016 6.51246 10.9032 6.55181 10.8117C6.59116 10.7202 6.64834 10.6375 6.72 10.5684L11.94 5.34937H9.022C8.82309 5.34937 8.63232 5.27035 8.49167 5.1297C8.35102 4.98904 8.272 4.79828 8.272 4.59937ZM3.157 2.59937C3.36845 1.94548 3.78173 1.37546 4.33747 0.971193C4.8932 0.566926 5.56278 0.349223 6.25 0.349365H14.75C15.612 0.349365 16.4386 0.691775 17.0481 1.30127C17.6576 1.91076 18 2.73741 18 3.59937V12.1874C18.0002 12.8292 17.8104 13.4567 17.4544 13.9907C17.0985 14.5248 16.5924 14.9415 16 15.1884V15.3244C16 16.3744 15.47 17.1694 14.691 17.6684C13.941 18.1484 12.974 18.3544 11.998 18.3484H11.996L7.919 18.3444H4C2.843 18.3444 1.836 17.9824 1.11 17.2994C0.383 16.6134 0 15.6594 0 14.5994V5.84937C0 4.98437 0.216 4.16637 0.734 3.55337C1.268 2.92037 2.044 2.59937 2.956 2.59937H3.157ZM3 4.09937H2.956C2.412 4.09937 2.085 4.27837 1.88 4.52037C1.66 4.78237 1.5 5.21437 1.5 5.84937V14.5994C1.5 15.2894 1.742 15.8334 2.14 16.2074C2.54 16.5844 3.157 16.8444 4 16.8444H7.92L12 16.8494H12.004C12.792 16.8534 13.449 16.6834 13.882 16.4054C14.254 16.1674 14.464 15.8554 14.496 15.4374H6.25C5.38805 15.4374 4.5614 15.095 3.9519 14.4855C3.34241 13.876 3 13.0493 3 12.1874V4.09937ZM6.25 1.84937C5.78587 1.84937 5.34075 2.03374 5.01256 2.36193C4.68437 2.69012 4.5 3.13524 4.5 3.59937V12.1874C4.5 13.1544 5.284 13.9374 6.25 13.9374H14.75C15.2141 13.9374 15.6592 13.753 15.9874 13.4248C16.3156 13.0966 16.5 12.6515 16.5 12.1874V3.59937C16.5 3.13524 16.3156 2.69012 15.9874 2.36193C15.6592 2.03374 15.2141 1.84937 14.75 1.84937H6.25Z" fill="black"/>
</svg>
