<svg width="23" height="23" viewBox="0 0 23 23" fill="none" xmlns="http://www.w3.org/2000/svg">
<path d="M15.1553 0.250057H7.84277C5.8297 0.253033 3.89993 1.05404 2.47647 2.4775C1.05301 3.90096 0.251999 5.83073 0.249023 7.84381V15.1563C0.251999 17.1694 1.05301 19.0992 2.47647 20.5226C3.89993 21.9461 5.8297 22.7471 7.84277 22.7501H15.1553C17.1683 22.7471 19.0981 21.9461 20.5216 20.5226C21.945 19.0992 22.746 17.1694 22.749 15.1563V7.84381C22.746 5.83073 21.945 3.90096 20.5216 2.4775C19.0981 1.05404 17.1683 0.253033 15.1553 0.250057ZM17.5965 8.56381C17.59 8.92267 17.5056 9.27584 17.349 9.59881C17.1893 9.92028 16.9585 10.2011 16.674 10.4201C16.3931 10.6377 16.0659 10.7878 15.7178 10.8588C15.5603 10.8761 15.4028 10.8761 15.2453 10.8588C15.0473 10.8588 14.8523 10.8363 14.6603 10.7913L12.3428 10.1388V15.0213C12.3428 15.7093 12.1386 16.3819 11.7561 16.9538C11.3737 17.5257 10.8301 17.9712 10.1942 18.234C9.55836 18.4968 8.85882 18.565 8.18419 18.4299C7.50956 18.2949 6.89017 17.9627 6.40446 17.4754C5.91875 16.9881 5.58856 16.3676 5.4557 15.6926C5.32284 15.0175 5.39329 14.3182 5.65813 13.6832C5.92296 13.0482 6.37027 12.5061 6.94342 12.1254C7.51656 11.7448 8.18976 11.5428 8.87777 11.5451C9.50634 11.5415 10.1229 11.7171 10.6553 12.0513V5.30131C10.6427 5.22684 10.6427 5.15078 10.6553 5.07631V4.98631C10.7064 4.85914 10.7889 4.74703 10.8952 4.66045C11.0014 4.57388 11.1279 4.51568 11.2628 4.49131C11.3145 4.47889 11.3685 4.47889 11.4203 4.49131H11.7578L15.819 5.61631C16.308 5.75808 16.7381 6.05402 17.0453 6.46006C17.349 6.86731 17.5178 7.35893 17.529 7.86631L17.5965 8.56381Z" fill="#1278BB"/>
</svg>
