<svg width="24" height="25" viewBox="0 0 24 25" fill="none" xmlns="http://www.w3.org/2000/svg">
<path d="M12.001 15.9858C12.001 16.6047 11.7551 17.1983 11.3175 17.6359C10.8799 18.0735 10.2864 18.3193 9.66748 18.3193C9.0486 18.3193 8.45507 18.0735 8.01745 17.6359C7.57983 17.1983 7.33398 16.6047 7.33398 15.9858C7.33398 15.367 7.57983 14.7734 8.01745 14.3358C8.45507 13.8982 9.0486 13.6523 9.66748 13.6523C10.2864 13.6523 10.8799 13.8982 11.3175 14.3358C11.7551 14.7734 12.001 15.367 12.001 15.9858ZM12.001 15.9858L12.0005 7.31934L15.7005 8.37234C15.979 8.45136 16.2242 8.61911 16.3987 8.85013C16.5732 9.08115 16.6676 9.36281 16.6675 9.65234V10.2123C16.6668 10.4155 16.6196 10.6158 16.5297 10.7979C16.4398 10.9801 16.3095 11.1393 16.1487 11.2635C15.9879 11.3876 15.8009 11.4734 15.6019 11.5143C15.4029 11.5552 15.1972 11.55 15.0005 11.4993L12.0005 10.6523" stroke="black" stroke-width="1.5" stroke-linecap="round"/>
<path d="M15.25 3.56934H8.75C5.43629 3.56934 2.75 6.25563 2.75 9.56934V16.0693C2.75 19.383 5.43629 22.0693 8.75 22.0693H15.25C18.5637 22.0693 21.25 19.383 21.25 16.0693V9.56934C21.25 6.25563 18.5637 3.56934 15.25 3.56934Z" stroke="black" stroke-width="1.5"/>
</svg>
